<?xml version="1.0" encoding="UTF-8" standalone="no"?>
<svg
   xmlns:dc="http://purl.org/dc/elements/1.1/"
   xmlns:cc="http://creativecommons.org/ns#"
   xmlns:rdf="http://www.w3.org/1999/02/22-rdf-syntax-ns#"
   xmlns:svg="http://www.w3.org/2000/svg"
   xmlns="http://www.w3.org/2000/svg"
   xmlns:xlink="http://www.w3.org/1999/xlink"
   xmlns:sodipodi="http://sodipodi.sourceforge.net/DTD/sodipodi-0.dtd"
   xmlns:inkscape="http://www.inkscape.org/namespaces/inkscape"
   clip-rule="evenodd"
   image-rendering="optimizeQuality"
   shape-rendering="geometricPrecision"
   text-rendering="geometricPrecision"
   viewBox="0 0 480 400"
   id="svg2"
   version="1.1"
   inkscape:version="0.48.4 r9939"
   width="100%"
   height="100%"
   sodipodi:docname="SmileyFace-Headphones.svg"
   style="fill-rule:evenodd">
  <metadata
     id="metadata44">
    <rdf:RDF>
      <cc:Work
         rdf:about="">
        <dc:format>image/svg+xml</dc:format>
        <dc:type
           rdf:resource="http://purl.org/dc/dcmitype/StillImage" />
        <dc:title></dc:title>
      </cc:Work>
    </rdf:RDF>
  </metadata>
  <sodipodi:namedview
     pagecolor="#ffffff"
     bordercolor="#666666"
     borderopacity="1"
     objecttolerance="10"
     gridtolerance="10"
     guidetolerance="10"
     inkscape:pageopacity="0"
     inkscape:pageshadow="2"
     inkscape:window-width="1518"
     inkscape:window-height="986"
     id="namedview42"
     showgrid="false"
     inkscape:zoom="1.3350176"
     inkscape:cx="244.94011"
     inkscape:cy="240.72066"
     inkscape:window-x="0"
     inkscape:window-y="28"
     inkscape:window-maximized="0"
     inkscape:current-layer="svg2"
     fit-margin-top="25"
     fit-margin-left="25"
     fit-margin-right="25"
     fit-margin-bottom="25" />
  <defs
     id="defs4">
    <inkscape:perspective
       sodipodi:type="inkscape:persp3d"
       inkscape:vp_x="0 : 250 : 1"
       inkscape:vp_y="0 : 1000 : 0"
       inkscape:vp_z="500 : 250 : 1"
       inkscape:persp3d-origin="250 : 166.66667 : 1"
       id="perspective46" />
    <style
       type="text/css"
       id="style6">
    .str0 {stroke:#434242;stroke-width:10}
    .fil0 {fill:none}
    .fil1 {fill:#434242}
    .fil4 {fill:url(#id0)}
    .fil3 {fill:url(#id1)}
    .fil5 {fill:url(#id2)}
    .fil2 {fill:url(#id3)}
   </style>
    <linearGradient
       gradientUnits="userSpaceOnUse"
       id="id0"
       x1="65.001999"
       x2="35.001999"
       y1="345.35901"
       y2="345.35901">
      <stop
         offset="0"
         stop-color="#008BFF"
         id="stop9" />
      <stop
         offset="1"
         stop-color="#0af"
         id="stop11" />
    </linearGradient>
    <linearGradient
       gradientUnits="userSpaceOnUse"
       id="id1"
       x1="68.959999"
       x2="86.736"
       y1="350.35901"
       y2="350.35901"
       gradientTransform="translate(-10,-114.87675)" />
    <linearGradient
       gradientUnits="userSpaceOnUse"
       id="id2"
       x1="434.99799"
       x2="464.99799"
       y1="345.35901"
       y2="345.35901"
       gradientTransform="translate(-10,-114.87675)" />
    <linearGradient
       gradientUnits="userSpaceOnUse"
       id="id3"
       x1="431.04001"
       x2="413.26401"
       y1="350.35901"
       y2="350.35901"
       gradientTransform="translate(-10,-114.87675)" />
    <linearGradient
       inkscape:collect="always"
       xlink:href="#id0"
       id="linearGradient2856"
       gradientUnits="userSpaceOnUse"
       x1="65.001999"
       y1="345.35901"
       x2="35.001999"
       y2="345.35901"
       gradientTransform="translate(-10,-114.87675)" />
    <inkscape:perspective
       id="perspective2875"
       inkscape:persp3d-origin="0.5 : 0.33333333 : 1"
       inkscape:vp_z="1 : 0.5 : 1"
       inkscape:vp_y="0 : 1000 : 0"
       inkscape:vp_x="0 : 0.5 : 1"
       sodipodi:type="inkscape:persp3d" />
    <linearGradient
       inkscape:collect="always"
       xlink:href="#id0-5"
       id="linearGradient2856-2"
       gradientUnits="userSpaceOnUse"
       x1="65.001999"
       y1="345.35901"
       x2="35.001999"
       y2="345.35901" />
    <linearGradient
       gradientUnits="userSpaceOnUse"
       id="id0-5"
       x1="65.001999"
       x2="35.001999"
       y1="345.35901"
       y2="345.35901">
      <stop
         offset="0"
         stop-color="#008BFF"
         id="stop9-6" />
      <stop
         offset="1"
         stop-color="#0af"
         id="stop11-9" />
    </linearGradient>
    <linearGradient
       gradientTransform="matrix(-1,0,0,1,490.59322,-114.65641)"
       y2="345.35901"
       x2="35.001999"
       y1="345.35901"
       x1="65.001999"
       gradientUnits="userSpaceOnUse"
       id="linearGradient2884"
       xlink:href="#id0-5"
       inkscape:collect="always" />
    <radialGradient
       gradientUnits="userSpaceOnUse"
       fy="0"
       fx="0"
       id="grad"
       cx="0"
       cy="0"
       r="20.075001">
      <stop
         offset="0"
         stop-color="yellow"
         id="stop11-6" />
      <stop
         offset=".75"
         stop-color="yellow"
         id="stop13" />
      <stop
         offset=".95"
         stop-color="#ee0"
         id="stop15" />
      <stop
         offset="1"
         stop-color="#e8e800"
         id="stop17" />
    </radialGradient>
    <radialGradient
       gradientUnits="userSpaceOnUse"
       id="shine"
       cx="-12"
       cy="-12"
       r="20"
       fx="-12"
       fy="-12">
      <stop
         offset="0"
         stop-color="white"
         stop-opacity=".7"
         id="stop6" />
      <stop
         offset="1"
         stop-color="white"
         stop-opacity="0"
         id="stop8" />
    </radialGradient>
  </defs>
  <circle
     r="20"
     id="circle19"
     d="m 20,0 c 0,11.045695 -8.954305,20 -20,20 -11.045695,0 -20,-8.954305 -20,-20 0,-11.045695 8.954305,-20 20,-20 11.045695,0 20,8.954305 20,20 z"
     cx="0"
     cy="0"
     sodipodi:cx="0"
     sodipodi:cy="0"
     sodipodi:rx="20"
     sodipodi:ry="20"
     style="fill:url(#grad);stroke:#000000;stroke-width:0.15000001"
     transform="matrix(7.5925993,0,0,7.5925993,238.43871,222.57857)" />
  <circle
     r="20"
     id="circle21"
     d="m 20,0 c 0,11.045695 -8.954305,20 -20,20 -11.045695,0 -20,-8.954305 -20,-20 0,-11.045695 8.954305,-20 20,-20 11.045695,0 20,8.954305 20,20 z"
     cx="0"
     cy="0"
     sodipodi:cx="0"
     sodipodi:cy="0"
     sodipodi:rx="20"
     sodipodi:ry="20"
     style="fill:url(#shine)"
     transform="matrix(7.5925993,0,0,7.5925993,238.43871,222.57857)" />
  <ellipse
     style="fill:#000000"
     sodipodi:ry="4"
     sodipodi:rx="2.5"
     sodipodi:cy="-7"
     sodipodi:cx="-6"
     d="m -3.5,-7 c 0,2.209139 -1.1192881,4 -2.5,4 -1.3807119,0 -2.5,-1.790861 -2.5,-4 0,-2.209139 1.1192881,-4 2.5,-4 1.3807119,0 2.5,1.790861 2.5,4 z"
     id="ellipse24"
     cy="-7"
     cx="-6"
     ry="4"
     rx="2.5"
     transform="matrix(7.5925993,0,0,7.5925993,238.43871,222.57857)" />
  <ellipse
     rx="2.5"
     ry="4"
     cx="-6"
     cy="-7"
     id="ellipse3075"
     d="m -3.5,-7 c 0,2.209139 -1.1192881,4 -2.5,4 -1.3807119,0 -2.5,-1.790861 -2.5,-4 0,-2.209139 1.1192881,-4 2.5,-4 1.3807119,0 2.5,1.790861 2.5,4 z"
     sodipodi:cx="-6"
     sodipodi:cy="-7"
     sodipodi:rx="2.5"
     sodipodi:ry="4"
     style="fill:#000000"
     transform="matrix(-7.5925993,0,0,7.5925993,238.43871,222.57857)" />
  <path
     d="m 147.32752,260.54157 a 102.50009,102.50009 0 0 0 182.22238,0 98.703791,98.703791 0 0 1 -182.22238,0"
     id="path30-1"
     inkscape:connector-curvature="0"
     style="fill:none;stroke:#000000;stroke-width:5.69444942" />
  <path
     style="fill:none;stroke:#434242;stroke-width:10"
     id="path17"
     d="m 380,148.12325 h 10 c 6,0 10,5 10,10 v 140 c 0,6 -4,10 -10,10 h -10 c -5,0 -10,-4 -10,-10 v -140 c 0,-5 5,-10 10,-10 z"
     class="fil0 str0"
     inkscape:connector-curvature="0" />
  <path
     style="fill:#434242"
     id="1"
     d="m 380,148.12325 h 10 c 6,0 10,5 10,10 v 140 c 0,6 -4,10 -10,10 h -10 c -5,0 -10,-4 -10,-10 v -140 c 0,-5 5,-10 10,-10 z"
     class="fil1"
     inkscape:connector-curvature="0" />
  <path
     style="fill:none;stroke:#434242;stroke-width:10"
     id="path20"
     d="m 413,158.12325 h -8 v 140 h 8 c 4,0 7,-3 7,-7 v -125 c 0,-4 -3,-8 -7,-8 z"
     class="fil0 str0"
     inkscape:connector-curvature="0" />
  <path
     style="fill:url(#id3)"
     id="path22"
     d="m 413,158.12325 h -8 v 140 h 8 c 4,0 7,-3 7,-7 v -125 c 0,-4 -3,-8 -7,-8 z"
     class="fil2"
     inkscape:connector-curvature="0" />
  <path
     style="fill:none;stroke:#434242;stroke-width:10"
     id="path24"
     d="M 100,148.12325 H 90 c -6,0 -10,5 -10,10 v 140 c 0,6 4,10 10,10 h 10 c 5,0 10,-4 10,-10 v -140 c 0,-5 -5,-10 -10,-10 z"
     class="fil0 str0"
     inkscape:connector-curvature="0" />
  <path
     style="fill:#434242"
     id="path26"
     d="M 100,148.12325 H 90 c -6,0 -10,5 -10,10 v 140 c 0,6 4,10 10,10 h 10 c 5,0 10,-4 10,-10 v -140 c 0,-5 -5,-10 -10,-10 z"
     class="fil1"
     inkscape:connector-curvature="0" />
  <path
     style="fill:none;stroke:#434242;stroke-width:10"
     id="path28"
     d="m 68,158.12325 h 7 v 140 h -7 c -5,0 -8,-3 -8,-7 v -125 c 0,-4 3,-8 8,-8 z"
     class="fil0 str0"
     inkscape:connector-curvature="0" />
  <path
     style="fill:url(#id1)"
     id="path30"
     d="m 68,158.12325 h 7 v 140 h -7 c -5,0 -8,-3 -8,-7 v -125 c 0,-4 3,-8 8,-8 z"
     class="fil3"
     inkscape:connector-curvature="0" />
  <path
     style="fill:none;stroke:#434242;stroke-width:10"
     id="path32"
     d="m 55,188.12325 v 80 c -14,0 -25,-11 -25,-25 v -30 c 0,-14 11,-25 25,-25 z"
     class="fil0 str0"
     inkscape:connector-curvature="0" />
  <path
     style="fill:url(#linearGradient2856)"
     id="path34"
     d="m 55,188.12325 v 80 c -14,0 -25,-11 -25,-25 v -30 c 0,-14 11,-25 25,-25 z"
     class="fil4"
     inkscape:connector-curvature="0" />
  <path
     style="fill:none;stroke:#434242;stroke-width:10"
     id="path36"
     d="m 425,188.12325 v 80 c 14,0 25,-11 25,-25 v -30 c 0,-14 -11,-25 -25,-25 z"
     class="fil0 str0"
     inkscape:connector-curvature="0" />
  <path
     style="fill:url(#id2)"
     id="path38"
     d="m 425,188.12325 v 80 c 14,0 25,-11 25,-25 v -30 c 0,-14 -11,-25 -25,-25 z"
     class="fil5"
     inkscape:connector-curvature="0" />
  <path
     style="fill:url(#linearGradient2884)"
     id="path34-1"
     d="m 425.59322,188.34359 0,80 c 14,0 25,-11 25,-25 l 0,-30 c 0,-14 -11,-25 -25,-25 z"
     class="fil4"
     inkscape:connector-curvature="0" />
  <path
     style="fill:#434242"
     id="path40"
     d="m 51,217.02104 c 0,7.46961 -10,7.46961 -10,0 V 173.69732 C 41,93.025569 131,28.03999 241,28.03999 c 111,0 200,64.985579 200,145.65733 v 43.32372 c 0,7.46961 -10,7.46961 -10,0 v -50.79333 c 0,-61.99773 -85,-112.0441 -190,-112.0441 -105,0 -190,50.04637 -190,112.0441 v 50.79333 z"
     class="fil1"
     inkscape:connector-curvature="0" />
</svg>
